<svg id="Layer_1" data-name="Layer 1" xmlns="http://www.w3.org/2000/svg" viewBox="0 0 140 140"><defs><style>.cls-1{fill:#951f1f;}</style></defs><title>beni</title><polygon class="cls-1" points="139.94 70.5 139.95 75.09 139.41 79.64 138.67 84.16 137.7 88.64 136.37 93.03 134.68 97.29 132.66 101.4 130.53 105.44 128.24 109.41 125.61 113.17 122.63 116.66 119.55 120.05 116.17 123.15 112.53 125.92 108.82 128.61 104.99 131.11 100.98 133.34 96.84 135.29 92.49 136.75 88.14 138.21 83.66 139.18 79.13 139.85 74.57 140.26 70 140.63 65.41 140.48 60.86 139.92 56.33 139.21 51.86 138.21 47.45 136.91 43.22 135.14 38.98 133.4 35.03 131.06 31.12 128.69 27.33 126.11 23.76 123.23 20.41 120.09 17.39 116.64 14.46 113.11 11.87 109.34 9.27 105.56 7.32 101.41 5.24 97.33 3.82 92.97 2.51 88.58 1.38 84.15 0.67 79.63 0.19 75.08 0.15 70.5 0.24 65.93 0.63 61.36 1.23 56.82 2.44 52.4 3.62 47.96 5.23 43.67 7.23 39.54 9.35 35.48 11.74 31.57 14.4 27.83 17.27 24.25 20.6 21.1 23.93 17.96 27.45 15.05 31.14 12.33 35.03 9.92 39 7.63 43.25 5.92 47.47 4.13 51.91 3.01 56.34 1.81 60.85 1.04 65.42 0.64 70 0.59 74.58 0.68 79.13 1.17 83.65 1.91 88.16 2.73 92.56 4.06 96.83 5.73 100.96 7.71 105.03 9.83 108.82 12.4 112.65 14.92 116.15 17.87 119.46 21.04 122.63 24.35 125.6 27.84 128.19 31.62 130.57 35.53 132.87 39.5 134.73 43.69 136.35 47.98 137.53 52.41 138.69 56.84 139.32 61.37 139.79 65.92 139.94 70.5"/></svg>