<svg id="Layer_1" data-name="Layer 1" xmlns="http://www.w3.org/2000/svg" viewBox="0 0 100 100"><defs><style>.cls-1{fill:#951f1f;}</style></defs><title>beni-button</title><polygon class="cls-1" points="99.91 50 99.85 54.62 99.3 59.22 98.12 63.69 96.76 68.11 94.87 72.34 92.41 76.26 89.91 80.14 86.86 83.6 83.69 86.96 80.09 89.85 76.31 92.49 72.33 94.84 68.1 96.73 63.72 98.21 59.19 99.17 54.62 99.81 50 99.9 45.39 99.75 40.83 99.05 36.35 97.97 31.92 96.68 27.68 94.83 23.69 92.49 19.81 89.97 16.35 86.91 12.95 83.77 10.05 80.17 7.58 76.26 5.11 72.35 3.34 68.08 2.02 63.65 0.74 59.21 0.25 54.61 0.09 50 0.25 45.39 0.78 40.8 2.03 36.35 3.3 31.91 5.32 27.75 7.42 23.64 10.05 19.83 12.94 16.22 16.34 13.07 19.83 10.04 23.69 7.5 27.65 5.12 31.91 3.31 36.28 1.77 40.79 0.74 45.38 0.1 50 0.07 54.62 0.21 59.17 0.97 63.65 2.02 68.03 3.46 72.32 5.18 76.29 7.54 80.11 10.13 83.71 13.03 86.85 16.41 90.01 19.79 92.54 23.66 94.87 27.66 96.74 31.89 98.15 36.3 99.15 40.81 99.81 45.38 99.91 50"/></svg>