<svg id="Layer_1" data-name="Layer 1" xmlns="http://www.w3.org/2000/svg" xmlns:xlink="http://www.w3.org/1999/xlink" viewBox="0 0 140 140"><defs><style>.cls-1,.cls-3,.cls-6{fill:none;}.cls-2{clip-path:url(#clip-path);}.cls-3{stroke:#fff;stroke-width:2px;}.cls-3,.cls-6{stroke-miterlimit:10;}.cls-4{fill:#69696c;}.cls-5{fill:#fff;}.cls-6{stroke:#69696c;stroke-width:0.5px;}</style><clipPath id="clip-path"><circle class="cls-1" cx="-81" cy="70.5" r="70"/></clipPath></defs><title>black</title><g class="cls-2"><polygon class="cls-3" points="-93.09 49.76 -59.72 49.76 7 144.5 -151.47 144.5 -93.09 49.76"/></g><polygon class="cls-4" points="139.98 70.5 139.82 75.08 139.54 79.66 138.57 84.14 137.6 88.62 136.31 93.01 134.58 97.25 132.7 101.42 130.55 105.46 128.28 109.44 125.64 113.2 122.72 116.74 119.53 120.03 116.06 123.02 112.64 126.07 108.86 128.66 105.03 131.18 101.02 133.41 96.75 135.09 92.54 136.89 88.16 138.28 83.66 139.14 79.15 139.98 74.57 140.27 70 140.57 65.42 140.42 60.88 139.78 56.34 139.17 51.91 137.99 47.54 136.66 43.19 135.21 39.03 133.29 35.02 131.08 31.15 128.65 27.44 125.97 23.8 123.17 20.54 119.95 17.4 116.63 14.49 113.09 11.91 109.31 9.38 105.5 7.33 101.41 5.29 97.31 3.63 93.03 2.5 88.59 1.36 84.15 0.71 79.62 0.14 75.08 -0.01 70.5 0.04 65.91 0.49 61.35 1.35 56.84 2.44 52.4 3.69 47.99 5.42 43.75 7.22 39.54 9.43 35.53 11.85 31.64 14.36 27.8 17.31 24.29 20.53 21.03 23.77 17.78 27.45 15.04 31.05 12.2 35.04 9.94 39.02 7.68 43.18 5.74 47.52 4.29 51.84 2.73 56.31 1.71 60.88 1.21 65.42 0.6 70 0.56 74.59 0.54 79.16 0.98 83.65 1.87 88.13 2.83 92.53 4.14 96.76 5.91 100.97 7.7 104.99 9.9 108.95 12.21 112.6 14.99 116.22 17.8 119.51 20.99 122.67 24.31 125.43 27.97 128.18 31.63 130.73 35.44 132.75 39.56 134.6 43.74 136.17 48.04 137.51 52.41 138.69 56.84 139.36 61.37 139.98 65.91 139.98 70.5"/><path class="cls-5" d="M62.34,48l.22-4.28.34-4.3.27-4.3.21-4.31.15-4.31.19-4.31.38-4.34-3.76,2.59-3.8,2.46-3.81,2.46L49,27.87l-3.81,2.46-3.75,2.56-3.88,2.33-4.68-.77-4.73-.61-4.65-1-4.72-.61-4.68-1-4.78-.7,2.08,4,2.38,3.72,2,3.94L17.89,46l2.29,3.77,1.91,4,2.29,3.78-.28,4.64-.49,4.61-.28,4.63L23,76.08l-.41,4.62L22,85.44l3.45-2.64,3.44-2.42L32.4,78l3.54-2.29,3.41-2.48,3.44-2.43,3.44-2.47,4.36.74,4.38.55,4.38.47,4.34.76,4.4.43,4.36.68,4.32.58-2.34-4.09-2.52-4-2.23-4.21-2.64-4-2.39-4.12ZM40.66,61.82,36,59.72,33,55.49l-.48-5.1,2.08-4.68,4.14-3.09L44,42.05l4.67,2.27,3.12,4.15.47,5.2L50,58.39l-4.2,3.08Z"/><polyline class="cls-6" points="51.81 37.63 54.16 33.76 56.12 29.69"/><polyline class="cls-6" points="64.5 65.54 60.74 63.03 56.88 60.68"/><polyline class="cls-6" points="29 73.77 31.07 69.75 33.23 65.78"/><polyline class="cls-6" points="28.83 43.55 24.9 41.31 20.79 39.44"/></svg>