<svg id="Layer_1" data-name="Layer 1" xmlns="http://www.w3.org/2000/svg" xmlns:xlink="http://www.w3.org/1999/xlink" viewBox="0 0 140 140"><defs><style>.cls-1,.cls-4,.cls-6{fill:none;}.cls-2{fill:#036273;}.cls-3{clip-path:url(#clip-path);}.cls-4,.cls-6{stroke:#fff;stroke-miterlimit:10;}.cls-4{stroke-width:2px;}.cls-5{fill:#fff;}.cls-6{stroke-linecap:square;}</style><clipPath id="clip-path"><circle class="cls-1" cx="70" cy="70.5" r="70"/></clipPath></defs><title>blue</title><polygon class="cls-2" points="140.04 70.5 139.96 75.09 139.36 79.63 138.74 84.18 137.64 88.63 136.25 92.99 134.6 97.26 132.91 101.52 130.75 105.57 128.22 109.4 125.57 113.14 122.69 116.71 119.58 120.08 116.12 123.09 112.69 126.14 108.85 128.64 104.99 131.11 101.01 133.38 96.84 135.31 92.55 136.92 88.12 138.11 83.66 139.16 79.13 139.81 74.59 140.47 70 140.37 65.42 140.43 60.88 139.78 56.37 139.02 51.89 138.09 47.52 136.73 43.22 135.15 39.1 133.16 35.04 131.05 31.12 128.68 27.32 126.12 23.89 123.07 20.44 120.06 17.3 116.71 14.48 113.1 11.77 109.4 9.31 105.53 7.13 101.5 5.18 97.35 3.83 92.96 2.48 88.59 1.44 84.14 0.64 79.63 0.21 75.08 -0.09 70.5 0.26 65.93 0.53 61.35 1.47 56.87 2.35 52.37 3.65 47.98 5.31 43.7 7.29 39.57 9.39 35.51 11.86 31.65 14.53 27.93 17.26 24.25 20.4 20.9 23.79 17.8 27.39 14.97 31.08 12.25 35.06 9.98 39.01 7.66 43.21 5.81 47.51 4.24 51.88 2.87 56.33 1.76 60.86 1.11 65.42 0.72 70 0.42 74.58 0.61 79.15 1.05 83.64 1.94 88.13 2.84 92.48 4.29 96.77 5.87 100.93 7.79 105.07 9.76 108.87 12.33 112.62 14.96 116.22 17.8 119.42 21.09 122.64 24.34 125.54 27.88 128.13 31.66 130.65 35.49 132.69 39.59 134.81 43.66 136.33 47.98 137.63 52.38 138.78 56.82 139.35 61.37 139.78 65.92 140.04 70.5"/><g class="cls-3"><polygon class="cls-4" points="57.91 49.76 91.28 49.76 158 144.5 -0.47 144.5 57.91 49.76"/><polygon class="cls-5" points="57.91 49.76 91.28 49.76 117.05 87.24 105.18 80.78 102.4 96.3 94.06 83.89 88.5 99.4 80.16 86.99 77.38 102.5 69.03 86.99 63.47 102.5 55.13 83.89 46.79 96.3 44.01 83.89 33.46 89.7 57.91 49.76"/><line class="cls-6" x1="39.84" y1="92.85" x2="34.28" y2="101.19"/><line class="cls-6" x1="28.94" y1="107.33" x2="23.38" y2="115.68"/><line class="cls-6" x1="110.23" y1="89.82" x2="115.98" y2="98.03"/><line class="cls-6" x1="121.35" y1="103.72" x2="127.1" y2="111.93"/><line class="cls-6" x1="103.74" y1="99.69" x2="109.73" y2="107.72"/><line class="cls-6" x1="112.86" y1="111.59" x2="118.85" y2="119.62"/><line class="cls-6" x1="45.6" y1="100.77" x2="42.39" y2="110.27"/><line class="cls-6" x1="39.43" y1="117.03" x2="33.87" y2="125.37"/></g></svg>