<svg id="Layer_1" data-name="Layer 1" xmlns="http://www.w3.org/2000/svg" xmlns:xlink="http://www.w3.org/1999/xlink" viewBox="0 0 140 140"><defs><style>.cls-1,.cls-4{fill:none;}.cls-2{fill:#688274;}.cls-3{clip-path:url(#clip-path);}.cls-4{stroke:#fff;stroke-miterlimit:10;stroke-width:2px;}</style><clipPath id="clip-path"><circle class="cls-1" cx="70" cy="70.5" r="70"/></clipPath></defs><title>green</title><polygon class="cls-2" points="140.13 70.5 139.99 75.09 139.31 79.63 138.59 84.15 137.6 88.62 136.21 92.98 134.58 97.25 132.86 101.5 130.65 105.52 128.17 109.37 125.47 113.06 122.55 116.59 119.45 119.95 116.25 123.24 112.58 125.99 108.91 128.74 104.98 131.09 100.94 133.24 96.8 135.19 92.46 136.66 88.11 138.09 83.63 139.03 79.13 139.81 74.57 140.26 70 140.49 65.43 140.23 60.85 140 56.35 139.12 51.87 138.16 47.49 136.81 43.26 135.05 39.03 133.29 35.04 131.04 31.14 128.65 27.43 125.98 23.78 123.2 20.57 119.93 17.29 116.72 14.57 113.03 11.83 109.36 9.28 105.55 7.14 101.5 5.27 97.31 3.76 92.99 2.27 88.65 1.33 84.16 0.59 79.64 0.07 75.08 -0.07 70.5 0.15 65.92 0.74 61.38 1.45 56.86 2.34 52.37 3.61 47.96 5.31 43.7 7.14 39.5 9.35 35.48 11.91 31.68 14.56 27.96 17.39 24.36 20.47 20.97 23.77 17.79 27.42 15 31.07 12.23 34.99 9.86 39.06 7.76 43.24 5.9 47.45 4.08 51.84 2.74 56.34 1.82 60.85 1.05 65.42 0.57 70 0.38 74.58 0.7 79.16 0.97 83.65 1.91 88.12 2.89 92.54 4.11 96.85 5.69 101.02 7.59 105 9.89 108.89 12.3 112.56 15.04 116.23 17.78 119.41 21.09 122.69 24.29 125.44 27.97 128.09 31.69 130.59 35.52 132.73 39.57 134.65 43.72 136.16 48.04 137.54 52.4 138.63 56.85 139.51 61.35 139.78 65.92 140.13 70.5"/><g class="cls-3"><polyline class="cls-4" points="140.97 95.77 134.09 92.43 127.25 89.03 120.21 86.03 113.19 83 106.1 80.16 98.89 77.56 91.53 75.5 84.11 73.67"/><polygon class="cls-4" points="124.5 88.97 120.81 82.46 116.86 76.17 112.13 70.45 106.84 65.25 101.16 60.49 94.95 56.42 88.15 53.6 80.83 52.63 73.46 52.58 66.12 53.45 58.9 55.02 51.79 56.99 44.78 59.32 37.81 62.1 43 67.11 48.34 71.78 53.7 76.42 59.08 81.05 64.69 85.39 70.39 89.62 76.26 93.63 82.58 96.89 89.46 98.53 96.71 97.82 103.82 96.24 110.86 94.31 117.67 91.7 124.5 88.97"/></g></svg>