<svg id="Layer_1" data-name="Layer 1" xmlns="http://www.w3.org/2000/svg" viewBox="0 0 270 170"><defs><style>.cls-1{fill:#92bba5;}.cls-2{fill:#ee8e7a;}.cls-3{fill:#fff3c4;}.cls-4{fill:#292631;}</style></defs><title>logo1b</title><polygon class="cls-1" points="48.96 25.03 48.41 29.29 47.28 33.42 45.56 37.33 43.08 40.83 40.2 44.01 36.71 46.53 32.83 48.41 28.67 49.57 24.37 49.96 20.11 49.31 15.96 48.26 12.08 46.43 8.48 44.08 5.58 40.89 3.04 37.41 1.29 33.48 0.1 29.33 0.01 25.03 0.12 20.72 1.24 16.56 3.23 12.75 5.61 9.19 8.58 6.09 12.07 3.6 15.99 1.86 20.09 0.61 24.37 0.15 28.65 0.62 32.85 1.61 36.68 3.58 40.08 6.19 43.18 9.15 45.53 12.74 47.39 16.6 48.57 20.73 48.96 25.03"/><polygon class="cls-2" points="159 85.74 158.37 90 157.38 94.17 155.69 98.13 153.09 101.54 150.09 104.59 146.66 107.17 142.77 108.96 138.64 110.08 134.37 110.44 130.1 110.1 126 108.89 122.09 107.13 118.5 104.76 115.48 101.68 113.11 98.08 111.24 94.21 110.3 90.01 109.81 85.74 110.14 81.44 111.42 77.33 113.01 73.33 115.47 69.79 118.47 66.69 122.07 64.3 125.95 62.47 130.07 61.22 134.37 60.9 138.66 61.26 142.81 62.42 146.65 64.34 150.24 66.72 153.2 69.85 155.73 73.34 157.3 77.34 158.5 81.46 159 85.74"/><polygon class="cls-3" points="270 145.44 269.53 149.73 268.3 153.84 266.6 157.77 264.09 161.25 261.21 164.43 257.62 166.8 253.82 168.8 249.66 169.88 245.37 170.35 241.06 170 236.96 168.68 233.12 166.79 229.55 164.41 226.54 161.34 224.12 157.78 222.23 153.91 221.25 149.72 220.92 145.44 221.09 141.14 222.24 136.97 224.02 133.04 226.61 129.61 229.63 126.58 233.01 123.92 236.91 122.06 241.08 120.95 245.37 120.61 249.63 121.15 253.83 122.08 257.71 123.95 261.16 126.51 264.19 129.56 266.5 133.17 268.32 137.04 269.54 141.16 270 145.44"/><polygon class="cls-4" points="31.85 109.5 27.87 109.45 23.88 109.66 19.87 109.38 15.79 109.6 15.89 105.11 15.86 100.7 15.73 96.28 15.94 91.87 15.82 87.45 15.8 83.04 15.96 78.62 15.97 74.21 15.75 69.79 15.82 65.37 15.83 60.91 19.87 61.01 23.86 60.82 27.87 61.06 31.97 60.86 31.92 65.36 31.96 69.77 31.81 74.19 32 78.6 31.77 83.02 31.94 87.43 31.97 91.84 31.99 96.26 31.75 100.68 31.98 105.1 31.85 109.5"/><polygon class="cls-4" points="77.78 109.44 73.87 109.41 69.88 109.62 65.87 109.67 61.92 109.47 61.97 105.11 61.96 100.7 61.97 96.28 61.86 91.87 61.94 87.45 61.85 83.04 62.01 78.62 61.72 74.21 61.75 69.79 61.82 65.37 61.94 61.01 65.87 61.1 69.86 60.91 73.87 61 77.95 60.88 77.83 65.36 77.95 69.77 77.98 74.19 77.97 78.6 77.86 83.02 77.91 87.43 77.75 91.84 77.73 96.26 77.74 100.68 77.99 105.1 77.78 109.44"/><polygon class="cls-4" points="77.45 69.56 80.03 65.96 83.76 63.49 87.93 61.91 92.48 61.41 92.35 65.5 92.5 69.55 92.28 73.56 87.79 74.94 83.75 77.47 80.44 80.88 78.24 85.1 77.48 89.78 77.5 84.73 77.3 79.67 77.27 74.61 77.45 69.56"/><polygon class="cls-4" points="142.48 169.99 138.4 169.88 134.4 169.95 130.4 169.86 126.36 169.94 126.37 165.5 126.25 161.09 126.4 156.68 126.51 152.26 126.43 147.84 126.44 143.43 126.4 139.02 126.27 134.6 126.4 130.18 126.39 125.76 126.28 121.24 130.39 121.46 134.38 121.26 138.39 121.47 142.44 121.3 142.54 125.75 142.35 130.16 142.41 134.58 142.51 138.99 142.26 143.41 142.48 147.82 142.53 152.24 142.51 156.65 142.45 161.07 142.31 165.49 142.48 169.99"/><polygon class="cls-4" points="188.39 169.91 184.4 169.84 180.4 169.95 176.4 169.94 172.29 170.01 172.32 165.5 172.48 161.09 172.34 156.68 172.26 152.26 172.53 147.84 172.51 143.43 172.49 139.02 172.3 134.6 172.38 130.18 172.38 125.76 172.44 121.39 176.39 121.41 180.38 121.43 184.39 121.46 188.38 121.36 188.35 125.75 188.3 130.16 188.43 134.58 188.31 138.99 188.47 143.41 188.47 147.82 188.5 152.24 188.32 156.65 188.26 161.07 188.51 165.49 188.39 169.91"/><polygon class="cls-4" points="187.94 129.95 190.6 126.4 194.3 123.92 198.47 122.41 202.78 121.89 202.76 125.89 202.77 129.94 202.93 134 198.37 135.47 194.18 137.74 190.83 141.18 188.67 145.46 187.92 150.18 187.95 145.13 187.9 140.07 187.8 135 187.94 129.95"/></svg>