<svg id="Layer_1" data-name="Layer 1" xmlns="http://www.w3.org/2000/svg" viewBox="0 0 270 170"><defs><style>.cls-1{fill:#688274;}.cls-2{fill:#c4462b;}.cls-3{fill:#ffcd03;}.cls-4{fill:#292631;}</style></defs><title>logo1</title><polygon class="cls-1" points="49.93 25.08 49.4 29.36 48.47 33.56 46.5 37.38 44.11 40.95 41.18 44.1 37.69 46.64 33.78 48.49 29.59 49.47 25.31 49.87 21.05 49.4 16.85 48.48 13.07 46.41 9.46 44.09 6.6 40.88 4.19 37.35 2.31 33.5 1.25 29.35 0.86 25.08 1.32 20.82 2.36 16.68 4.09 12.75 6.42 9.13 9.56 6.19 12.96 3.56 16.86 1.71 21.04 0.69 25.31 0.27 29.61 0.61 33.77 1.72 37.69 3.52 41.03 6.24 44.04 9.28 46.47 12.79 48.31 16.66 49.39 20.81 49.93 25.08"/><polygon class="cls-2" points="159.72 85.8 159.55 90.09 158.23 94.19 156.52 98.11 154.21 101.74 151.16 104.79 147.64 107.28 143.72 109.02 139.61 110.31 135.31 110.59 131.03 110.21 126.86 109.15 122.97 107.3 119.51 104.74 116.61 101.58 114.17 98.08 112.24 94.24 111.09 90.09 110.81 85.8 111.11 81.5 112.24 77.35 114.19 73.52 116.59 69.99 119.53 66.87 122.98 64.31 126.85 62.41 131.04 61.43 135.31 60.93 139.6 61.37 143.72 62.57 147.57 64.43 151.2 66.75 154.23 69.83 156.58 73.44 158.4 77.34 159.52 81.5 159.72 85.8"/><polygon class="cls-3" points="270.68 145.5 270.56 149.8 269.22 153.89 267.65 157.89 265.02 161.29 262.09 164.42 258.57 166.85 254.78 168.88 250.61 170.01 246.31 170.36 242.03 169.91 237.89 168.77 233.95 167.03 230.46 164.51 227.57 161.32 224.97 157.89 223.25 153.94 222.2 149.78 221.87 145.5 222.05 141.19 223.31 137.07 225.03 133.14 227.45 129.57 230.51 126.55 233.96 123.97 237.86 122.14 242.04 121.15 246.31 120.77 250.62 120.95 254.78 122.11 258.58 124.12 262.08 126.59 265.13 129.62 267.6 133.14 269.42 137.04 270.51 141.21 270.68 145.5"/><polygon class="cls-4" points="32.72 109.5 28.82 109.64 24.82 109.6 20.82 109.53 16.88 109.52 16.92 105.16 16.88 100.75 16.67 96.34 16.87 91.92 16.78 87.51 16.87 83.09 16.87 78.68 16.81 74.26 16.96 69.85 16.86 65.42 16.92 61.1 20.81 61.1 24.81 61.09 28.81 61.02 32.73 61.08 32.91 65.42 32.77 69.83 32.85 74.24 32.82 78.66 32.67 83.07 32.81 87.49 32.71 91.9 32.75 96.31 32.74 100.73 32.91 105.16 32.72 109.5"/><polygon class="cls-4" points="78.83 109.59 74.82 109.55 70.82 109.52 66.82 109.7 62.85 109.55 62.78 105.16 62.74 100.75 62.81 96.34 62.72 91.92 62.74 87.51 62.88 83.09 62.88 78.68 62.68 74.26 62.71 69.85 62.89 65.42 62.85 61.04 66.81 61 70.81 60.97 74.81 60.94 78.86 60.96 78.82 65.42 78.8 69.83 78.83 74.24 78.67 78.66 78.94 83.07 78.95 87.49 78.71 91.9 78.73 96.31 78.78 100.73 78.72 105.15 78.83 109.59"/><polygon class="cls-4" points="78.44 69.62 80.99 66.03 84.76 63.66 88.85 61.9 93.19 61.56 93.28 65.55 93.22 69.6 93.41 73.7 88.81 75.16 84.71 77.55 81.37 80.92 79.2 85.16 78.2 89.85 78.23 84.79 78.41 79.73 78.21 74.67 78.44 69.62"/><polygon class="cls-4" points="143.43 170.05 139.34 169.93 135.34 169.87 131.34 170.03 127.33 169.97 127.39 165.55 127.29 161.14 127.45 156.73 127.22 152.31 127.42 147.9 127.46 143.48 127.34 139.07 127.41 134.66 127.36 130.24 127.47 125.82 127.38 121.44 131.33 121.34 135.33 121.51 139.33 121.28 143.33 121.4 143.41 125.81 143.3 130.22 143.37 134.63 143.42 139.05 143.46 143.46 143.47 147.88 143.25 152.29 143.26 156.71 143.31 161.12 143.46 165.54 143.43 170.05"/><polygon class="cls-4" points="189.27 169.9 185.34 169.97 181.34 170.08 177.34 170.03 173.22 170.07 173.25 165.55 173.21 161.14 173.29 156.73 173.21 152.31 173.23 147.9 173.24 143.48 173.44 139.07 173.19 134.66 173.33 130.24 173.47 125.82 173.31 121.37 177.33 121.54 181.33 121.44 185.33 121.31 189.24 121.48 189.47 125.81 189.34 130.22 189.19 134.63 189.3 139.05 189.31 143.46 189.48 147.88 189.44 152.29 189.4 156.71 189.26 161.12 189.28 165.54 189.27 169.9"/><polygon class="cls-4" points="188.95 130.01 191.58 126.5 195.15 123.8 199.41 122.44 203.89 121.88 203.74 125.94 203.76 129.99 203.84 134.04 199.35 135.59 195.16 137.84 191.85 141.28 189.69 145.54 188.69 150.24 188.82 145.18 188.76 140.12 188.84 135.06 188.95 130.01"/></svg>