<svg id="Layer_1" data-name="Layer 1" xmlns="http://www.w3.org/2000/svg" viewBox="0 0 270 170"><defs><style>.cls-1{fill:#13859a;}.cls-2{fill:#efc9d7;}.cls-3{fill:#d2bbfe;}.cls-4{fill:#292631;}</style></defs><title>logo2b</title><polygon class="cls-1" points="49.72 25.08 49.56 29.38 48.37 33.52 46.68 37.49 44.08 40.92 41.18 44.1 37.59 46.47 33.78 48.47 29.58 49.45 25.31 49.75 21.02 49.55 16.91 48.3 12.99 46.56 9.6 43.92 6.45 41 4.06 37.42 2.18 33.55 1.14 29.37 0.84 25.08 1.22 20.81 2.41 16.69 4.18 12.8 6.44 9.15 9.53 6.15 13.01 3.64 16.89 1.79 21.01 0.54 25.31 0.31 29.57 0.81 33.74 1.78 37.55 3.77 41.13 6.12 44.03 9.28 46.56 12.74 48.23 16.69 49.47 20.8 49.72 25.08"/><polygon class="cls-2" points="159.74 85.8 159.41 90.07 158.49 94.28 156.44 98.07 154.09 101.65 151.15 104.78 147.61 107.22 143.73 109.06 139.57 110.1 135.31 110.55 131.02 110.29 126.89 109.07 123 107.25 119.58 104.66 116.47 101.7 114.08 98.13 112.2 94.26 111.09 90.09 110.81 85.8 111.15 81.51 112.21 77.33 113.97 73.4 116.51 69.92 119.46 66.79 123.03 64.39 126.9 62.54 131.06 61.52 135.31 61.12 139.58 61.46 143.73 62.54 147.56 64.46 151.11 66.86 154.04 69.99 156.59 73.44 158.26 77.39 159.41 81.52 159.74 85.8"/><polygon class="cls-3" points="270.7 145.5 270.31 149.76 269.23 153.89 267.64 157.88 265.04 161.3 262.07 164.39 258.58 166.87 254.69 168.66 250.57 169.8 246.31 170.31 242.04 169.84 237.84 168.91 234.06 166.86 230.59 164.35 227.49 161.38 224.96 157.9 223.16 153.97 222.19 149.78 221.84 145.5 222.03 141.19 223.16 137.02 225.06 133.15 227.47 129.59 230.51 126.55 234 124.04 237.89 122.22 242.01 120.97 246.31 120.81 250.59 121.09 254.73 122.24 258.56 124.16 262.03 126.66 265.17 129.58 267.52 133.18 269.45 137.03 270.33 141.24 270.7 145.5"/><polygon class="cls-4" points="32.72 109.49 28.82 109.59 24.82 109.7 20.82 109.58 16.8 109.59 16.92 105.16 16.91 100.75 16.74 96.34 16.71 91.92 16.68 87.51 16.68 83.09 16.77 78.68 16.8 74.26 16.77 69.85 16.94 65.42 16.73 60.93 20.81 61.09 24.81 60.96 28.81 60.98 32.91 60.91 32.74 65.42 32.77 69.83 32.96 74.24 32.96 78.66 32.93 83.07 32.72 87.49 32.86 91.9 32.9 96.31 32.7 100.73 32.86 105.15 32.72 109.49"/><polygon class="cls-4" points="78.81 109.57 74.82 109.53 70.82 109.51 66.82 109.46 62.88 109.52 62.75 105.16 62.87 100.75 62.77 96.34 62.84 91.92 62.77 87.51 62.78 83.09 62.83 78.68 62.68 74.26 62.72 69.85 62.84 65.42 62.75 60.95 66.81 60.92 70.81 60.89 74.81 61.03 78.8 61.02 78.86 65.42 78.74 69.83 78.94 74.24 78.74 78.66 78.84 83.07 78.73 87.49 78.94 91.9 78.83 96.31 78.92 100.73 78.84 105.15 78.81 109.57"/><polygon class="cls-4" points="78.44 69.62 80.98 66.02 84.65 63.44 88.9 62.09 93.25 61.54 93.31 65.55 93.38 69.6 93.27 73.63 88.77 75.08 84.62 77.43 81.29 80.87 79.21 85.16 78.43 89.84 78.29 84.79 78.33 79.73 78.43 74.67 78.44 69.62"/><polygon class="cls-4" points="143.44 170.06 139.34 169.84 135.34 169.97 131.34 169.92 127.38 169.93 127.46 165.55 127.37 161.14 127.41 156.73 127.36 152.31 127.37 147.9 127.4 143.48 127.21 139.07 127.19 134.66 127.24 130.24 127.45 125.82 127.26 121.33 131.33 121.38 135.33 121.54 139.33 121.28 143.32 121.41 143.19 125.81 143.44 130.22 143.23 134.63 143.37 139.05 143.27 143.46 143.21 147.88 143.26 152.29 143.46 156.71 143.4 161.12 143.31 165.55 143.44 170.06"/><polygon class="cls-4" points="189.26 169.9 185.34 170.08 181.34 170.11 177.34 170.06 173.35 169.95 173.29 165.55 173.23 161.14 173.38 156.73 173.26 152.31 173.22 147.9 173.24 143.48 173.27 139.07 173.31 134.66 173.49 130.24 173.4 125.82 173.23 121.3 177.33 121.26 181.33 121.47 185.33 121.36 189.23 121.49 189.25 125.81 189.45 130.22 189.47 134.63 189.36 139.05 189.47 143.46 189.28 147.88 189.21 152.29 189.26 156.71 189.34 161.12 189.39 165.55 189.26 169.9"/><polygon class="cls-4" points="188.93 130.01 191.5 126.41 195.27 124.03 199.41 122.44 203.76 121.93 203.92 125.94 203.89 129.99 203.73 133.99 199.33 135.55 195.22 137.92 191.95 141.36 189.79 145.57 188.77 150.24 188.82 145.18 188.92 140.12 188.7 135.06 188.93 130.01"/></svg>