<svg id="Layer_1" data-name="Layer 1" xmlns="http://www.w3.org/2000/svg" viewBox="0 0 140 140"><defs><style>.cls-1{fill:#e59ab6;}.cls-2{fill:#fff;}</style></defs><title>pink</title><polygon class="cls-1" points="139.92 70.5 139.82 75.08 139.54 79.66 138.54 84.14 137.59 88.61 136.43 93.05 134.63 97.27 132.72 101.43 130.71 105.55 128.17 109.37 125.61 113.17 122.67 116.69 119.4 119.9 116.08 123.04 112.53 125.93 108.83 128.62 105.01 131.15 100.95 133.26 96.78 135.17 92.46 136.66 88.12 138.13 83.66 139.15 79.13 139.81 74.58 140.36 70 140.41 65.43 140.23 60.87 139.82 56.36 139.07 51.91 138 47.48 136.83 43.15 135.32 39.02 133.32 35.06 131.01 31.18 128.59 27.32 126.12 23.83 123.14 20.44 120.06 17.47 116.56 14.36 113.19 11.8 109.38 9.35 105.51 7.09 101.52 5.36 97.28 3.79 92.98 2.41 88.61 1.23 84.18 0.69 79.63 0 75.09 0.01 70.5 0.2 65.92 0.62 61.36 1.22 56.82 2.23 52.34 3.71 47.99 5.33 43.71 7.26 39.56 9.31 35.46 11.85 31.64 14.4 27.84 17.28 24.27 20.52 21.02 23.77 17.78 27.47 15.07 31.09 12.26 35.01 9.89 39.07 7.78 43.18 5.74 47.51 4.24 51.9 2.94 56.34 1.82 60.84 0.96 65.43 0.76 70 0.56 74.58 0.62 79.16 0.94 83.64 1.94 88.1 2.97 92.54 4.11 96.74 5.94 101.03 7.59 104.94 9.99 108.87 12.33 112.55 15.05 116.14 17.89 119.46 21.04 122.52 24.44 125.53 27.9 128.16 31.64 130.7 35.46 132.84 39.51 134.77 43.67 136.44 47.95 137.51 52.41 138.62 56.85 139.54 61.34 139.99 65.91 139.92 70.5"/><polygon class="cls-1" points="56.48 91.26 57.26 90.21 58.11 89.15 58.82 87.98 59.57 86.84 60.16 85.61 60.77 84.39 61.26 83.12 61.72 81.83 62.04 80.51 62.31 79.19 62.59 77.85 63.3 79.03 64.18 80.06 65.1 81.07 66.11 81.98 67.1 82.92 68.18 83.76 69.23 84.63 70.39 85.36 71.48 86.2 72.62 86.96 73.8 87.69 73.04 86.48 72.21 85.37 71.35 84.28 70.43 83.24 69.45 82.25 68.4 81.34 67.28 80.53 66.22 79.64 65.03 78.92 63.84 78.21 62.61 77.6 62.62 77.54 63.96 77.26 65.23 76.74 66.47 76.18 67.68 75.53 68.91 74.89 70.04 74.11 71.2 73.37 72.26 72.48 73.37 71.67 74.5 70.88 75.5 69.97 74.19 70.31 72.88 70.71 71.62 71.26 70.35 71.78 69.14 72.42 67.95 73.11 66.8 73.84 65.68 74.62 64.55 75.4 63.54 76.33 62.58 77.3 62.7 75.94 62.63 74.58 62.41 73.23 62.16 71.89 61.84 70.57 61.43 69.26 61.02 67.96 60.61 66.66 60.11 65.39 59.7 64.09 59.14 62.84 59.07 64.23 59.12 65.6 59.24 66.97 59.31 68.36 59.63 69.7 59.89 71.05 60.2 72.39 60.63 73.7 61.13 74.98 61.73 76.21 62.35 77.45 61.1 76.86 59.77 76.49 58.41 76.31 57.06 76.08 55.69 75.93 54.31 75.95 52.94 75.88 51.57 75.9 50.2 75.95 48.82 75.95 47.47 76.05 48.75 76.51 50.07 76.91 51.39 77.33 52.75 77.57 54.11 77.79 55.47 77.94 56.85 78.05 58.22 78.06 59.6 78.04 60.96 77.83 62.32 77.67 61.47 78.73 60.66 79.83 59.99 81.01 59.43 82.25 58.92 83.52 58.42 84.79 57.94 86.06 57.56 87.38 57.19 88.69 56.79 89.98 56.48 91.26"/><path class="cls-2" d="M35.13,71.72l-.42,1.4-.07,1.45L34.53,76l.16,1.44.37,1.41.47,1.39.72,1.27.86,1.17.82,1.22,1.09,1,1.08,1,1.2.82,1.35.57L44,88l.12-.1.69-1.33,1.11-1,1-1.11,1.23-.85,1.26-.81,1.41-.5,1.34-.64,1.4-.5L55,80.85l-1.25.47-1.27.45-1.11.79-1.19.62-1.09.8-.94,1-.9,1-.74,1.14-.64,1.17,0,0,0,0-.35,1.33L45.25,91l-.09,1.38.15,1.37.11,1.37.12,1.37L46,97.8l.53,1.27.64,1.22,1,1,1,1,1.24.66,1.31.5,1.34.43,1.39.14,1.4-.08,1.39,0,1.34-.41,1.39-.24,1.22-.69,1.32-.49,1.12-.85,1.14-.82.93-1,.86-1.07L65.65,97l-.91-1.18-.56-1.39-.49-1.4-.26-1.47-.12-1.48-.16-1.47.06-1.48V85.62l.07,1.4.26,1.32.07,1.35L64,91l.45,1.28.69,1.15.7,1.14.84,1,1,.9-.06.08,1.17.7,1.21.61,1.23.57L72.4,99l1.32.34,1.35.13,1.35.09,1.36,0,1.34-.25,1-.52,1-.41,1.11-.87.94-1,.9-1.08L84.62,94l.71-1.22.42-1.35.16-1.4v-3l-.11-1.5-.46-1.44L85,82.67l-.68-1.34L83.56,80l-.11.14L82,80.58,80.6,81l-1.5,0-1.48.09-1.47-.23-1.46-.28-1.46-.3-1.39-.51-1.42-.51,1.43.27,1.39.28,1.4.31h1.43l1.43-.08,1.39-.32,1.36-.37,1.37-.4,1.16-.8,1-.89,1-1,.87-1.08L86.31,74l.63-1.23.59-1.26.22-1.38L88,68.76l-.1-1.39L87.69,66l-.5-1.29-.51-1.29-.81-1.14-1-1-1.06-1-1.3-.63-1.3-.62-1.31-.58-1.42-.28-1.41-.27-1.43-.07H74.2l-1.42.26-1.39.34h.06l-.1,1.48-.09,1.48L71,62.88l-.5,1.4L70,65.66,69.27,67l-.83,1.23-.85,1.21-1,1.17.78-1.34L68.09,68l.71-1.31.33-1.45.35-1.43.33-1.45.07-1.48-.2-1.47L69.33,58l-.52-1.38-.73-1.29-1-1.12-1-1-1-1.08-1.28-.76-1.36-.56L61,50.29l-1.46-.22L57.84,50l-1.67.39-1.27.32-1.19.58L52.65,52l-1,.81-.57.35-.88,1.06-.74,1.16-.67,1.19-.57,1.24-.63,1.23-.31,1.37L47,61.81l0,1.4,1.41.45,1.34.61,1.33.65,1.23.85,1.12,1,1.06,1L55.38,69l.83,1.23L57,71.45l-.75-1.07-1-.92-.91-1-1-.92-1.19-.66L51,66.16l-1.24-.53-1.34-.22-1.29-.32v.11l-1.44,0-1.44.2-1.39.36-1.44.25-1.29.69-1.32.61-1.1,1-1,1-.85,1.14Zm27.22,5.73-.61-1.25L61.06,75l-.39-1.33-.4-1.31L59.91,71l-.23-1.35-.28-1.34L59.16,67l0-1.38-.12-1.38.06-1.32.46,1.22.6,1.23.32,1.33L61,68l.56,1.25.21,1.36.47,1.29.23,1.35.24,1.34-.09,1.37v1.35l.92-1,1.08-.84,1.06-.87,1.17-.7L67.89,73l1.25-.57,1.23-.59,1.23-.62,1.29-.45,1.3-.44L75.42,70l-1,.81-1,.88-1.11.81-1.14.77L70,74.05l-1.07.88-1.19.7-1.27.55-1.23.63L64,77.28l-1.35.23,0,0,1.18.74,1.21.65,1.17.73,1.07.88,1.1.84,1.09.86.92,1,1,.94.73,1.19,1,1,.63,1.13-1.1-.64-1.09-.82-1.17-.7-1.12-.78-1-.91L67.05,83l-1-1-1-.92-.89-1L63.37,79l-.78-1.12-.3,1.34-.17,1.35-.47,1.28-.33,1.32-.66,1.21-.57,1.22-.63,1.2L58.89,88l-.74,1.14-.79,1.12-1,1.07L56.82,90l.3-1.32.36-1.32.43-1.29.53-1.26.49-1.27.46-1.29L60,81l.7-1.18.79-1.1.75-1.07L61,77.81,59.59,78l-1.37.11L56.85,78l-1.38.1-1.35-.33-1.35-.25L51.4,77.3,50,77.05l-1.3-.47-1.24-.52,1.32-.18,1.38.05,1.37-.06,1.37.1,1.37-.1,1.37.14,1.38,0,1.35.3,1.36.17,1.29.47Z"/><polygon class="cls-1" points="92.91 54.78 93.49 53.52 93.89 52.2 94.15 50.84 94.3 49.47 94.25 48.07 95.29 48.99 96.48 49.7 97.72 50.31 99 50.86 100.31 51.31 99.27 50.36 98.1 49.57 96.88 48.87 95.57 48.36 94.23 47.95 94.24 47.98 95.44 47.27 96.47 46.34 97.44 45.33 98.35 44.27 99.2 43.19 98 43.87 96.9 44.71 95.89 45.66 94.97 46.71 94.19 47.84 93.86 46.5 93.29 45.25 92.63 44.03 91.89 42.85 91.1 41.71 91.44 43.08 91.86 44.41 92.47 45.67 93.22 46.85 94.09 47.91 92.71 47.83 91.32 47.9 89.94 48.14 88.59 48.49 87.29 48.89 88.65 49.01 90.05 49.02 91.44 48.82 92.8 48.53 94.1 48.04 93.54 49.3 93.27 50.65 93.06 52.02 92.97 53.41 92.91 54.78"/><path class="cls-2" d="M81.28,48.25l.07,1.33.36,1.28L82.37,52l1,.91,1.05.83,1.25.49,1.3.25h0l.66-1.41,1-1.19,1.21-1,1.36-.68L90,51.08,89,52l-.77,1.17-.4,1.34h0l0,0,0,1.4.36,1.35.56,1.27.84,1.1,1.15.76,1.47.27,1.5-.07,1.39-.59,1.24-.84,1-1.09.74-1.28L97,55.79l-.77-1.33L95.65,53l-.23-1.49.37,1.32.63,1.24.89,1.06,1.14.79,0,0,1.34.42,1.39.2,1.4-.16,1.33-.44.82-.62.78-1.29L106,52.6l0-1.51-.36-1.57-.77-1.41-1-1.25h0l-1.35.74L101,48l-1.54.11-1.53-.16,1.5,0,1.44-.33,1.37-.55,1.17-.9.72-1.31.53-1.39.12-1.49-.39-1.44-.7-1.31-1.2-.88-1.21-.52L100,37.6l-1.33-.05-1.29.34-1.2.57h0l.3,1.51-.15,1.53L96,43l-.7,1.36.48-1.45.13-1.53-.15-1.52-.51-1.44-1-1.17-1.29-.84L91.46,36l-1.53,0-1.5.46-1,.7-.75,1-.17.25-.69,1.41-.26,1.56.15,1.91,1.51.23,1.44.53,1.25.89,1.13,1L89.93,45l-1.23-.66L87.34,44,86,44.06v0l-1.25.47-1.22.55-1,.9-.87,1Zm12.81-.32-.9-1.06-.72-1.2-.57-1.28-.53-1.29-.26-1.35.8,1.09L92.67,44l.65,1.22.58,1.27.31,1.33.72-1.15,1-1,1-1L98,43.91l1.14-.71-.84,1-.91,1.06-.94,1-1.08.88L94.24,48v-.06l1.35.39,1.28.56,1.25.66,1.1.87,1.09.9L99,50.85l-1.28-.52-1.25-.59L95.27,49l-1-1,.07,1.41-.2,1.37-.25,1.35-.43,1.31-.52,1.27,0-1.37L93,52l.2-1.37.34-1.34L94.06,48l-1.27.47-1.35.28L90.06,49l-1.4,0-1.39-.12,1.33-.38,1.34-.38,1.38-.2,1.39-.11Z"/></svg>