<svg id="Layer_1" data-name="Layer 1" xmlns="http://www.w3.org/2000/svg" viewBox="0 0 100 100"><defs><style>.cls-1{fill:#a694c8;}</style></defs><title>purple-button</title><polygon class="cls-1" points="100.08 50 99.76 54.61 99.06 59.17 98.12 63.69 96.53 68.03 94.78 72.3 92.43 76.27 89.93 80.15 86.86 83.6 83.74 87.01 80.11 89.87 76.32 92.52 72.26 94.71 68.03 96.53 63.67 98.04 59.18 99.1 54.61 99.73 50 99.89 45.4 99.64 40.84 99.02 36.34 97.99 31.88 96.78 27.74 94.7 23.63 92.59 19.81 89.97 16.22 87.05 13.11 83.63 10.16 80.09 7.59 76.26 5.27 72.27 3.27 68.1 1.78 63.72 0.94 59.17 0.17 54.62 -0.12 50 0.1 45.38 0.95 40.83 1.91 36.31 3.27 31.9 5.32 27.75 7.5 23.69 10.09 19.86 13.14 16.4 16.39 13.14 19.82 10.03 23.66 7.45 27.66 5.13 31.91 3.3 36.28 1.8 40.82 0.88 45.39 0.29 50 -0.05 54.62 0.21 59.2 0.76 63.71 1.82 68.04 3.44 72.26 5.29 76.34 7.46 80.18 10.04 83.72 13.01 86.9 16.36 89.93 19.85 92.52 23.68 94.65 27.77 96.58 31.95 98.22 36.28 99.11 40.82 99.65 45.4 100.08 50"/></svg>