<svg id="Layer_1" data-name="Layer 1" xmlns="http://www.w3.org/2000/svg" viewBox="0 0 140 140"><defs><style>.cls-1{fill:#a694c8;}.cls-2{fill:#fff;}</style></defs><title>purple</title><polygon class="cls-1" points="140.38 69.82 140.26 74.4 139.79 78.96 139.17 83.51 138.01 87.95 136.53 92.28 135.09 96.63 133.09 100.75 130.97 104.81 128.56 108.7 125.82 112.37 122.96 115.95 119.85 119.31 116.5 122.43 113.01 125.4 109.33 128.15 105.3 130.33 101.27 132.49 97.19 134.59 92.83 136.01 88.46 137.34 84.04 138.55 79.49 139.1 74.95 139.76 70.36 139.91 65.78 139.71 61.22 139.23 56.69 138.56 52.24 137.43 47.81 136.25 43.54 134.57 39.43 132.54 35.3 130.54 31.41 128.11 27.71 125.4 24.15 122.51 20.94 119.24 17.82 115.89 14.85 112.41 12.23 108.66 9.72 104.83 7.64 100.75 5.6 96.64 4.02 92.34 2.84 87.91 1.75 83.47 1.08 78.94 0.52 74.4 0.34 69.82 0.46 65.23 1.08 60.69 1.75 56.17 2.65 51.67 4.11 47.33 5.74 43.05 7.6 38.86 9.69 34.79 12.22 30.97 14.81 27.19 17.76 23.68 20.82 20.27 24.12 17.08 27.76 14.29 31.46 11.59 35.41 9.28 39.35 6.93 43.62 5.25 47.9 3.63 52.25 2.22 56.7 1.11 61.22 0.36 65.78 -0.14 70.36 -0.21 74.94 0.03 79.49 0.48 84.03 1.12 88.51 2.12 92.84 3.6 97.14 5.18 101.29 7.1 105.44 9.06 109.2 11.69 112.91 14.38 116.46 17.25 119.86 20.32 123.05 23.62 126 27.13 128.47 31 130.97 34.83 133.08 38.89 134.96 43.06 136.81 47.26 138.13 51.66 139.08 56.15 139.66 60.69 140.2 65.24 140.38 69.82"/><path class="cls-1" d="M114,75.61a1,1,0,0,0,0-.16v0L109.65,68a.88.88,0,0,0-.73-.43l-3.44,0,2.41-29.65a.65.65,0,0,0,0-.14v-.06a.66.66,0,0,0-.08-.26l0-.08a1.34,1.34,0,0,0-.11-.14l-.14-.12h0l-.19-.08h-.07a.9.9,0,0,0-.23,0h-.07a.88.88,0,0,0-.23.07l-37.62,18a.81.81,0,0,0-.43.46L63.37,69.32,35.91,45.41a.87.87,0,0,0-1.1,0,.86.86,0,0,0-.2,1.08L48.21,70.4,46,70.13a.87.87,0,0,0-.81.38L32.36,89.87l0,0a1.19,1.19,0,0,0-.08.2v.08a.91.91,0,0,0,0,.23v.07a.9.9,0,0,0,.08.21l.07.11a.55.55,0,0,0,.13.14l0,.05.16.09.07,0a.67.67,0,0,0,.24,0l42,1.82,7.24,7.33.12.1.11.06.08,0a.8.8,0,0,0,.3.06h.17l.16-.06.1,0,.07-.06a.35.35,0,0,0,.1-.08l0,0,2-3,1.57,1.43a.84.84,0,0,0,.68.22.88.88,0,0,0,.6-.37l16.21-24.39,8.22,2.41.07,0h.25a.73.73,0,0,0,.2,0l0,0,.08,0,.07,0,0,0a.47.47,0,0,0,.1-.1.27.27,0,0,0,.07-.08l.07-.11a.76.76,0,0,0,0-.11.36.36,0,0,0,0-.1,1.11,1.11,0,0,0,0-.19S114,75.65,114,75.61ZM104,68.73l-.05,0,4.72.06L112,74.55Zm7.29,6.15-6.7-2-.37-3.17Zm-5.39-36.16-26,34.68L73.1,68.35l0,0h0l-.09,0h-.12l-8.55,2L69.7,56.08ZM81.34,82.94,74,69.85l5.77,4.3h0l6.67,5-5,3.63A.28.28,0,0,0,81.34,82.94Zm2.45,5.76L73,81.9h0l-2.21-1.39L73,69.58ZM72.45,69.07,70.12,80.13l-12.2-7.66ZM57,72l-7-.85L36.63,47.62,63,70.59Zm-.1.68L71.86,82l-38,7.81L46.1,71.34ZM72.7,82.54,84,89.63l-5.86,2.3-2.53-.11h0a.35.35,0,0,0-.48,0L35.85,90.1Zm5.47,10.08h0a.27.27,0,0,0,.12,0l6-2.35L82.71,99l-6.4-6.48Zm6.91-2.86v0h0v-.09a.3.3,0,0,0,0-.1h0l-3.48-6.19a.33.33,0,0,0,.3,0l19.91-14.58,1.53.48-19.75,29ZM103.6,70l.36,3.14L87.7,97.57l-1.79-1.63Zm-1.89-2h-.1l-.06,0,0,0L87,78.69l-6.56-4.88L106.61,39,104.25,68Z"/><path class="cls-2" d="M106.61,39,80.43,73.81,87,78.69,101.5,68.06l0,0,.06,0h.1l2.54,0Z"/><polygon class="cls-2" points="70.12 80.13 72.45 69.08 57.92 72.47 70.12 80.13"/><path class="cls-2" d="M75.59,91.81h0l2.53.11L84,89.63,72.7,82.54,35.85,90.1l39.26,1.7A.35.35,0,0,1,75.59,91.81Z"/><polygon class="cls-2" points="70.74 80.51 72.95 81.9 72.95 81.9 83.79 88.7 73.04 69.58 70.74 80.51"/><path class="cls-2" d="M108.71,68.76,104,68.7l.05,0,8,5.82Z"/><path class="cls-2" d="M101.77,68.71,81.86,83.29a.33.33,0,0,1-.3,0L85,89.53h0a.3.3,0,0,1,0,.1v.09h0v0l-1.53,8.45,19.75-29Z"/><path class="cls-2" d="M79.75,74.15h0L74,69.85l7.36,13.09a.28.28,0,0,1,.12-.2l5-3.63Z"/><path class="cls-2" d="M84.3,90.24l-6,2.35a.27.27,0,0,1-.12,0h0l-1.86-.08L82.71,99Z"/><polygon class="cls-2" points="103.96 73.09 103.6 69.95 85.92 95.94 87.7 97.56 103.96 73.09"/><polygon class="cls-2" points="111.33 74.88 104.26 69.74 104.63 72.91 111.33 74.88"/><polygon class="cls-2" points="71.86 82.02 56.93 72.66 46.1 71.34 33.82 89.83 71.86 82.02"/><polygon class="cls-2" points="49.99 71.13 57.03 71.98 63 70.59 36.63 47.62 49.99 71.13"/><path class="cls-2" d="M72.82,68.29h.12l.09,0h0l0,0,6.79,5.05,26.05-34.68L69.7,56.08,64.27,70.29Z"/></svg>