<svg id="Layer_1" data-name="Layer 1" xmlns="http://www.w3.org/2000/svg" viewBox="0 0 100 100"><defs><style>.cls-1{fill:#c4462b;}</style></defs><title>red-button</title><polygon class="cls-1" points="100.03 50 99.69 54.61 99.02 59.16 98 63.66 96.6 68.05 94.65 72.23 92.58 76.37 89.81 80.06 86.88 83.63 83.65 86.91 80.2 89.99 76.32 92.51 72.35 94.89 68.12 96.77 63.68 98.09 59.21 99.26 54.61 99.75 50 99.88 45.4 99.67 40.82 99.1 36.29 98.19 31.95 96.59 27.74 94.7 23.65 92.56 19.94 89.81 16.3 86.96 13.15 83.59 10.12 80.11 7.59 76.26 5.3 72.26 3.48 68.02 1.93 63.68 0.94 59.17 0.09 54.63 -0.04 50 0.21 45.38 0.88 40.82 1.84 36.3 3.33 31.92 5.22 27.7 7.52 23.7 10.08 19.86 13.07 16.33 16.23 12.96 19.81 10.01 23.64 7.42 27.74 5.29 31.92 3.32 36.29 1.82 40.78 0.71 45.38 0.17 50 -0.06 54.63 0.06 59.2 0.82 63.67 1.94 68.06 3.38 72.29 5.23 76.36 7.43 80.12 10.11 83.69 13.04 87.03 16.25 89.86 19.91 92.46 23.71 94.76 27.71 96.58 31.95 98.17 36.29 99.05 40.83 99.73 45.39 100.03 50"/></svg>