<svg id="Layer_1" data-name="Layer 1" xmlns="http://www.w3.org/2000/svg" xmlns:xlink="http://www.w3.org/1999/xlink" viewBox="0 0 140 140"><defs><style>.cls-1{fill:none;}.cls-2{fill:#c4462b;}.cls-3{clip-path:url(#clip-path);}.cls-4{fill:#fff;}</style><clipPath id="clip-path"><circle class="cls-1" cx="70" cy="70.5" r="70"/></clipPath></defs><title>Red</title><polygon class="cls-2" points="139.96 70.5 139.88 75.08 139.48 79.65 138.67 84.16 137.72 88.65 136.38 93.03 134.63 97.27 132.74 101.44 130.74 105.57 128.29 109.45 125.48 113.07 122.59 116.62 119.5 120 116.18 123.16 112.65 126.09 108.93 128.76 105.01 131.14 100.96 133.28 96.8 135.21 92.46 136.67 88.16 138.25 83.69 139.3 79.13 139.81 74.58 140.27 70 140.47 65.43 140.26 60.88 139.79 56.32 139.24 51.87 138.16 47.51 136.76 43.24 135.11 39.08 133.2 35.03 131.07 31.03 128.82 27.42 125.99 23.82 123.15 20.54 119.96 17.41 116.61 14.46 113.12 11.91 109.31 9.4 105.48 7.33 101.4 5.4 97.26 3.78 92.98 2.38 88.62 1.45 84.14 0.5 79.65 0.19 75.08 -0.04 70.5 0.14 65.92 0.73 61.38 1.33 56.84 2.47 52.4 3.76 48.01 5.38 43.73 7.12 39.49 9.45 35.54 11.71 31.55 14.57 27.96 17.41 24.38 20.43 20.93 23.8 17.82 27.36 14.93 31.14 12.34 34.95 9.78 39.03 7.7 43.2 5.81 47.47 4.13 51.86 2.8 56.34 1.84 60.88 1.24 65.43 0.77 70 0.47 74.59 0.56 79.14 1.09 83.68 1.76 88.13 2.84 92.46 4.33 96.75 5.93 100.96 7.73 105.03 9.83 108.96 12.2 112.58 15.01 116.21 17.81 119.5 21 122.58 24.39 125.47 27.94 128.32 31.54 130.75 35.43 132.81 39.53 134.73 43.69 136.38 47.97 137.75 52.35 138.62 56.85 139.53 61.34 139.77 65.93 139.96 70.5"/><g class="cls-3"><polygon class="cls-4" points="45.98 137.57 45.98 70.97 58.04 70.97 57.93 139.47 45.98 137.57"/><polygon class="cls-4" points="84.56 140.5 84.56 70.97 94.2 70.97 94.12 139.47 84.56 140.5"/><polygon class="cls-4" points="26.69 63.78 35.42 70.17 105.26 70.17 111.08 63.78 108.17 82.96 32.51 82.96 26.69 63.78"/><polygon class="cls-4" points="33.92 90.15 106.26 90.15 103.25 97.34 36.94 97.34 33.92 90.15"/></g></svg>