<svg id="Layer_1" data-name="Layer 1" xmlns="http://www.w3.org/2000/svg" viewBox="0 0 140 140"><defs><style>.cls-1{fill:#ece9e0;}.cls-2{fill:#fff;}.cls-3,.cls-4{fill:none;stroke:#fff;stroke-miterlimit:10;}.cls-3{stroke-width:2px;}.cls-4{stroke-width:0.75px;}</style></defs><title>white</title><polygon class="cls-1" points="140.12 70.5 139.72 75.07 139.49 79.65 138.54 84.14 137.49 88.59 136.26 93 134.62 97.27 132.76 101.45 130.5 105.43 128.13 109.34 125.51 113.1 122.71 116.73 119.44 119.95 116.21 123.19 112.67 126.11 108.88 128.69 105.01 131.15 100.99 133.35 96.83 135.27 92.55 136.93 88.09 138 83.64 139.05 79.13 139.8 74.58 140.3 70 140.44 65.41 140.44 60.87 139.8 56.33 139.23 51.91 137.99 47.48 136.82 43.18 135.24 39.03 133.3 35.04 131.05 31.12 128.69 27.43 125.97 23.9 123.07 20.4 120.1 17.26 116.75 14.39 113.17 11.8 109.39 9.33 105.53 7.32 101.41 5.27 97.31 3.7 93.01 2.42 88.61 1.33 84.16 0.52 79.65 0.17 75.08 0.07 70.5 0.07 65.92 0.55 61.35 1.29 56.83 2.48 52.4 3.67 47.98 5.4 43.74 7.26 39.56 9.45 35.54 11.68 31.53 14.5 27.91 17.37 24.34 20.43 20.93 23.92 17.96 27.38 14.95 31.11 12.28 35.04 9.95 39.03 7.69 43.25 5.92 47.45 4.07 51.87 2.84 56.34 1.84 60.85 0.98 65.42 0.71 70 0.57 74.58 0.66 79.16 0.96 83.67 1.79 88.11 2.94 92.56 4.06 96.76 5.9 101 7.64 105.07 9.76 108.94 12.23 112.69 14.87 116.23 17.78 119.58 20.92 122.57 24.4 125.61 27.84 128.13 31.66 130.51 35.57 132.7 39.58 134.57 43.76 136.29 48 137.5 52.41 138.75 56.82 139.5 61.35 139.91 65.92 140.12 70.5"/><polygon class="cls-2" points="32.87 72.94 31.56 75.68 30.73 78.61 30.47 81.65 30.75 84.69 31.97 87.49 33.79 89.95 36.12 91.5 38.73 92.49 41.43 93.13 44.16 93.69 46.94 93.9 49.71 94.24 52.49 94.35 55.27 94.46 58.06 94.61 60.85 94.5 63.64 94.52 66.43 94.41 69.21 94.29 71.98 94.01 74.77 93.94 77.58 93.18 80.44 92.66 83.24 91.91 86.02 91.07 88.82 90.31 91.61 89.5 94.4 88.7 97.12 87.66 99.87 86.71 102.56 85.6 105.16 84.31 107.66 82.86 109.79 80.93 111.15 78.36 111.51 75.47 111.12 72.59 110.37 69.8 109.39 67.06 108.09 64.47 106.67 61.96 104.04 60.84 101.32 59.95 98.55 59.22 95.76 58.56 92.96 58.01 90.16 57.39 87.31 57.07 84.47 56.73 81.61 56.5 78.74 56.41 75.88 56.62 73.03 56.81 70.17 57.07 67.35 57.56 64.56 58.22 61.81 59.03 58.98 59.84 56.25 60.91 53.44 61.81 50.72 62.92 48.04 64.14 45.38 65.38 42.74 66.67 40.1 67.96 37.58 69.47 35.1 71.05 32.87 72.94"/><polygon class="cls-3" points="32.87 72.94 31.56 75.68 30.73 78.61 30.47 81.65 30.75 84.69 31.97 87.49 33.79 89.95 36.12 91.5 38.73 92.49 41.43 93.13 44.16 93.69 46.94 93.9 49.71 94.24 52.49 94.35 55.27 94.46 58.06 94.61 60.85 94.5 63.64 94.52 66.43 94.41 69.21 94.29 71.98 94.01 74.77 93.94 77.58 93.18 80.44 92.66 83.24 91.91 86.02 91.07 88.82 90.31 91.61 89.5 94.4 88.7 97.12 87.66 99.87 86.71 102.56 85.6 105.16 84.31 107.66 82.86 109.79 80.93 111.15 78.36 111.51 75.47 111.12 72.59 110.37 69.8 109.39 67.06 108.09 64.47 106.67 61.96 104.04 60.84 101.32 59.95 98.55 59.22 95.76 58.56 92.96 58.01 90.16 57.39 87.31 57.07 84.47 56.73 81.61 56.5 78.74 56.41 75.88 56.62 73.03 56.81 70.17 57.07 67.35 57.56 64.56 58.22 61.81 59.03 58.98 59.84 56.25 60.91 53.44 61.81 50.72 62.92 48.04 64.14 45.38 65.38 42.74 66.67 40.1 67.96 37.58 69.47 35.1 71.05 32.87 72.94"/><polygon class="cls-1" points="30.41 67.48 32.61 65.6 34.82 63.71 37.19 62.02 39.64 60.44 42.12 58.93 44.66 57.5 47.22 56.13 49.79 54.75 52.53 53.74 55.23 52.66 58.02 51.81 60.83 51.05 63.66 50.38 66.55 50.01 69.44 49.63 72.34 49.55 75.25 49.54 78.19 49.68 81.13 49.84 84.04 50.18 86.98 50.38 89.87 50.91 92.78 51.38 95.64 52.05 98.44 52.93 101.25 53.79 103.91 55.02 106.46 56.45 108.73 58.3 110.55 60.59 111.11 63.45 109.61 65.78 107.05 67.11 104.43 68.31 101.76 69.4 99 70.27 96.22 71.06 93.42 71.75 90.65 72.56 87.83 73.17 85.02 73.81 82.2 74.46 79.37 75.04 76.53 75.55 73.67 76 70.83 76.53 68 77.13 65.16 77.64 62.29 78.04 59.44 78.52 56.57 78.91 53.69 79.18 50.83 79.55 47.96 79.94 45.1 80.27 42.22 80.51 39.35 80.37 36.4 79.97 33.53 79.17 30.87 77.9 28.87 75.79 28.2 72.94 28.93 70.05 30.41 67.48"/><polygon class="cls-3" points="30.41 67.48 32.61 65.6 34.82 63.71 37.19 62.02 39.64 60.44 42.12 58.93 44.66 57.5 47.22 56.13 49.79 54.75 52.53 53.74 55.23 52.66 58.02 51.81 60.83 51.05 63.66 50.38 66.55 50.01 69.44 49.63 72.34 49.55 75.25 49.54 78.19 49.68 81.13 49.84 84.04 50.18 86.98 50.38 89.87 50.91 92.78 51.38 95.64 52.05 98.44 52.93 101.25 53.79 103.91 55.02 106.46 56.45 108.73 58.3 110.55 60.59 111.11 63.45 109.61 65.78 107.05 67.11 104.43 68.31 101.76 69.4 99 70.27 96.22 71.06 93.42 71.75 90.65 72.56 87.83 73.17 85.02 73.81 82.2 74.46 79.37 75.04 76.53 75.55 73.67 76 70.83 76.53 68 77.13 65.16 77.64 62.29 78.04 59.44 78.52 56.57 78.91 53.69 79.18 50.83 79.55 47.96 79.94 45.1 80.27 42.22 80.51 39.35 80.37 36.4 79.97 33.53 79.17 30.87 77.9 28.87 75.79 28.2 72.94 28.93 70.05 30.41 67.48"/><polyline points="92.59 88.47 92.09 85.71 91.57 82.95 91.17 80.17 90.5 77.44 89.99 74.68 89.64 71.89 89.13 69.13 88.59 66.37 88.13 63.6 87.63 60.8 85.45 59.21 83.37 57.51 81.31 55.8 79.23 54.1 77.15 52.41 75.03 50.76 72.11 50.37 69.19 50.13 66.26 50.38 63.34 50.76 60.48 51.41 57.67 52.29 54.82 53.35 57.04 55.12 59.15 56.96 61.32 58.73 63.48 60.52 65.66 62.28 67.77 64.13 70.04 65.83 70.45 68.63 71.01 71.38 71.49 74.15 71.89 76.93 72.49 79.67 72.93 82.45 73.45 85.2 73.95 87.97 74.57 90.72 74.97 93.55 77.91 92.6 80.88 91.91 83.8 91.02 86.7 90.08 89.64 89.27 92.58 88.44"/><polyline class="cls-4" points="38.58 64.61 43.6 67.12 48.63 72.14"/><polyline class="cls-4" points="47.11 59.8 52.14 62.31 57.16 67.33"/><polyline class="cls-4" points="90.02 52 94.91 54.78 99.66 60.06"/><polyline class="cls-4" points="79.82 50.12 84.85 52.63 89.87 57.66"/></svg>