<svg id="Layer_1" data-name="Layer 1" xmlns="http://www.w3.org/2000/svg" viewBox="0 0 100 100"><defs><style>.cls-1{fill:#ece9e0;}</style></defs><title>white-button</title><polygon class="cls-1" points="99.87 50 99.91 54.63 99.01 59.16 98.2 63.71 96.51 68.02 94.74 72.28 92.43 76.27 89.99 80.2 87.02 83.75 83.73 87 80.13 89.91 76.32 92.5 72.34 94.86 68.1 96.72 63.66 98.01 59.21 99.26 54.62 99.81 50 99.97 45.39 99.73 40.79 99.28 36.32 98.06 31.92 96.67 27.68 94.83 23.67 92.52 19.81 89.98 16.26 87.01 13.1 83.64 10.15 80.09 7.37 76.39 5.14 72.34 3.43 68.04 1.95 63.67 0.84 59.19 0.17 54.62 -0.07 50 0.15 45.38 0.84 40.81 1.91 36.32 3.34 31.92 5.36 27.77 7.38 23.61 9.99 19.78 13.12 16.38 16.37 13.11 19.89 10.12 23.73 7.56 27.76 5.34 31.91 3.3 36.31 1.87 40.82 0.89 45.39 0.29 50 0.11 54.61 0.28 59.22 0.7 63.67 1.96 68.08 3.34 72.27 5.28 76.3 7.53 80.14 10.09 83.59 13.16 86.92 16.34 89.79 19.95 92.44 23.73 94.69 27.75 96.63 31.94 97.99 36.34 99.25 40.79 99.74 45.39 99.87 50"/></svg>