<svg id="Layer_1" data-name="Layer 1" xmlns="http://www.w3.org/2000/svg" xmlns:xlink="http://www.w3.org/1999/xlink" viewBox="0 0 140 140"><defs><style>.cls-1,.cls-4{fill:none;}.cls-2,.cls-5{fill:#ffcd03;}.cls-3{clip-path:url(#clip-path);}.cls-4,.cls-5{stroke:#fff;stroke-miterlimit:10;stroke-width:2px;}</style><clipPath id="clip-path"><circle class="cls-1" cx="69.67" cy="69.89" r="69.67"/></clipPath></defs><title>yellow</title><polygon class="cls-2" points="139.87 70 139.97 74.59 139.26 79.12 138.76 83.68 137.5 88.09 136.27 92.5 134.6 96.76 132.89 101.02 130.72 105.06 128.27 108.93 125.54 112.62 122.62 116.15 119.57 119.58 116.21 122.69 112.56 125.46 108.95 128.29 105.02 130.65 100.95 132.77 96.77 134.64 92.55 136.42 88.11 137.59 83.67 138.7 79.15 139.48 74.58 139.85 70 140.09 65.42 139.93 60.87 139.34 56.35 138.6 51.84 137.76 47.46 136.4 43.23 134.62 39.05 132.75 34.99 130.63 31.08 128.24 27.34 125.59 23.8 122.68 20.5 119.5 17.38 116.14 14.44 112.63 11.9 108.81 9.26 105.07 7.08 101.03 5.4 96.76 3.77 92.48 2.4 88.11 1.43 83.64 0.71 79.12 0.08 74.58 -0.03 70 0.19 65.42 0.68 60.87 1.44 56.36 2.43 51.89 3.56 47.45 5.37 43.23 7.18 39.02 9.42 35.02 11.84 31.14 14.46 27.38 17.48 23.94 20.53 20.53 23.94 17.47 27.44 14.54 31.16 11.86 35 9.38 39.09 7.31 43.17 5.22 47.51 3.74 51.87 2.33 56.34 1.32 60.88 0.73 65.42 0.15 70 0.1 74.58 0.21 79.13 0.67 83.68 1.23 88.1 2.46 92.54 3.6 96.75 5.43 100.95 7.25 105.06 9.28 108.93 11.73 112.64 14.43 116.11 17.42 119.57 20.44 122.63 23.85 125.54 27.39 128.27 31.07 130.69 34.96 132.79 39.04 134.55 43.26 136.19 47.53 137.66 51.87 138.76 56.32 139.41 60.86 139.92 65.42 139.87 70"/><g class="cls-3"><polygon class="cls-4" points="117.85 32.75 127.65 22.95 135 20.5 137.45 22.95 135 30.3 120.3 37.65 117.85 32.75"/><polygon class="cls-4" points="112.95 30.3 117.85 15.6 124.59 11.32 127.76 12.72 127.65 22.95 117.09 32.63 112.95 30.3"/><polygon class="cls-4" points="108.05 30.3 106.63 15.27 109.97 8.28 113.43 8.22 117.02 15.09 112.11 30.77 108.05 30.3"/><polygon class="cls-4" points="103.15 32.75 95.79 20.24 95.66 12.49 98.74 10.89 105.01 15.43 108.05 30.3 103.15 32.75"/><polygon class="cls-4" points="116.67 51.07 126.47 60.87 133.83 63.32 136.28 60.87 133.83 53.52 119.12 46.17 116.67 51.07"/><polygon class="cls-4" points="111.77 53.52 116.67 68.22 123.41 72.5 126.58 71.1 126.47 60.87 115.92 51.19 111.77 53.52"/><polygon class="cls-4" points="106.87 53.52 105.46 68.55 108.8 75.54 112.26 75.6 115.85 68.73 110.94 53.05 106.87 53.52"/><polygon class="cls-4" points="101.97 51.07 94.62 63.58 94.49 71.33 97.56 72.93 103.84 68.39 106.87 53.52 101.97 51.07"/><polygon class="cls-4" points="98.91 37.92 87.97 29.15 84.69 22.04 86.88 19.3 94.54 20.95 103.56 34.91 98.91 37.92"/><polygon class="cls-4" points="99.01 42.57 83.38 41.45 77.5 35.92 78.08 32.47 88.12 30.01 100.26 37.92 99.01 42.57"/><polygon class="cls-4" points="100.24 47.37 85.88 52.53 78.19 51.01 77.26 47.63 83.09 42.39 99.69 43.27 100.24 47.37"/><polygon class="cls-4" points="103.87 51.56 93.46 61.9 85.9 63.97 83.56 61.36 86.44 54.07 100.24 47.37 103.87 51.56"/><polygon class="cls-4" points="121.38 41.45 135.23 40.85 142 37.08 141.85 33.62 134.78 30.46 119.42 36.33 121.38 41.45"/><polygon class="cls-4" points="119.88 46.72 134.03 53.04 141.73 50.96 142.84 47.68 135.23 40.85 120.96 42.08 119.88 46.72"/><circle class="cls-5" cx="109.27" cy="41.32" r="12.25"/><polygon class="cls-4" points="43.31 102.24 54.96 97.38 62 97.86 63.21 100.78 58.6 106.12 43.68 107.22 43.31 102.24"/><polygon class="cls-4" points="40.03 98.48 49.25 87.8 56.41 86.53 58.59 88.8 54.96 97.38 42.72 101.88 40.03 98.48"/><polygon class="cls-4" points="35.9 96.78 39.91 83.64 45.15 78.91 48.09 80.06 48.73 87.08 39.16 98.59 35.9 96.78"/><polygon class="cls-4" points="30.93 97.15 29.07 84.07 31.64 77.5 34.78 77.21 38.5 83.22 35.9 96.78 30.93 97.15"/><polygon class="cls-4" points="35.98 117.27 40.84 128.92 46.18 133.53 49.09 132.31 49.57 125.27 39.74 113.99 35.98 117.27"/><polygon class="cls-4" points="31 117.63 30.04 131.71 34.23 137.65 37.38 137.57 40.84 128.92 35.3 117.1 31 117.63"/><polygon class="cls-4" points="26.87 115.94 20.48 128.1 20.87 135.14 23.76 136.4 29.16 131.86 30.46 116.94 26.87 115.94"/><polygon class="cls-4" points="23.59 112.18 13.07 120.16 10.28 126.64 12.31 129.06 19.17 127.4 26.87 115.94 23.59 112.18"/><polygon class="cls-4" points="25.57 100.04 19.39 88.87 19.09 81.74 21.89 80.19 27.77 84.23 30.53 99.12 25.57 100.04"/><polygon class="cls-4" points="24.04 103.99 11.27 97.64 8.23 90.94 9.91 88.23 19.23 89.64 26.71 100.51 24.04 103.99"/><polygon class="cls-4" points="23.42 108.46 9.53 107.83 3.59 103.89 3.97 100.72 10.7 98.32 24.37 104.82 23.42 108.46"/><polygon class="cls-4" points="25.02 113.24 12.67 118.34 5.59 117.47 4.53 114.46 9.47 109.32 23.42 108.46 25.02 113.24"/><polygon class="cls-4" points="43.27 110.8 55.14 115.08 62.15 114.26 63.22 111.29 58.36 106.18 43.4 105.81 43.27 110.8"/><polygon class="cls-4" points="40.18 114.71 49.91 124.94 57.12 125.85 59.19 123.47 55.14 115.08 42.7 111.18 40.18 114.71"/><circle class="cls-5" cx="33.12" cy="106.49" r="11.16"/></g></svg>