<svg id="Layer_1" data-name="Layer 1" xmlns="http://www.w3.org/2000/svg" viewBox="0 0 600 600"><defs><style>.cls-1{fill:#585858;}</style></defs><title>gray-circle</title><polygon class="cls-1" points="599.94 300.5 600.06 304.99 599.87 309.48 599.71 313.96 599.54 318.45 599.24 322.93 598.8 327.4 598.23 331.85 597.76 336.32 597.35 340.79 596.78 345.24 595.99 349.67 595.3 354.1 594.42 358.5 593.36 362.87 592.42 367.26 591.48 371.65 590.46 376.02 589.37 380.37 587.98 384.65 586.82 388.98 585.4 393.24 583.91 397.48 582.4 401.71 581.06 406 579.46 410.19 577.67 414.31 575.96 418.46 574.2 422.59 572.38 426.69 570.31 430.68 568.48 434.79 566.26 438.69 564.21 442.68 562.15 446.67 559.96 450.6 557.68 454.46 555.22 458.22 552.84 462.03 550.32 465.74 547.99 469.58 545.23 473.13 542.78 476.9 539.95 480.38 537.21 483.94 534.52 487.53 531.67 491 528.82 494.46 525.81 497.79 522.87 501.18 519.89 504.54 516.91 507.9 513.65 511 510.59 514.28 507.38 517.41 504.03 520.41 500.75 523.47 497.42 526.48 494.03 529.43 490.62 532.35 486.96 534.96 483.44 537.75 479.88 540.47 476.31 543.19 472.65 545.79 469.05 548.48 465.21 550.81 461.55 553.41 457.64 555.62 453.89 558.1 450.04 560.4 446.12 562.58 442.13 564.65 438.2 566.81 434.18 568.8 430.15 570.79 426.19 572.91 422.1 574.77 417.97 576.52 413.79 578.16 409.64 579.88 405.39 581.33 401.24 583.04 396.99 584.47 392.71 585.85 388.45 587.25 384.17 588.61 379.83 589.74 375.48 590.85 371.16 592.09 366.78 593.08 362.4 594.05 357.97 594.79 353.59 595.75 349.14 596.4 344.72 597.13 340.27 597.73 335.84 598.51 331.36 598.84 326.9 599.31 322.43 599.77 317.94 599.86 313.46 600.22 308.98 600.37 304.49 600.38 300 600.52 295.51 600.35 291.02 600.5 286.54 600.23 282.05 599.97 277.56 599.79 273.1 599.25 268.64 598.81 264.17 598.38 259.7 597.94 255.26 597.23 250.85 596.42 246.39 595.87 242.02 594.81 237.59 594.07 233.19 593.16 228.83 592.08 224.46 591.03 220.13 589.87 215.81 588.64 211.56 587.17 207.23 585.97 203.03 584.38 198.81 582.86 194.59 581.34 190.41 579.71 186.2 578.15 182.1 576.3 177.91 574.7 173.81 572.86 169.77 570.9 165.77 568.86 161.74 566.89 157.87 564.6 153.86 562.59 149.95 560.38 146.08 558.11 142.22 555.81 138.42 553.41 134.77 550.81 130.93 548.47 127.37 545.72 123.69 543.16 120.1 540.46 116.49 537.8 112.96 535.03 109.38 532.32 105.96 529.41 102.61 526.41 99.16 523.54 95.96 520.39 92.77 517.23 89.4 514.26 86.32 511 83.17 507.79 80.11 504.51 76.95 501.32 74.08 497.87 71.18 494.44 68.3 491 65.54 487.46 62.71 483.98 59.9 480.47 57.38 476.76 54.66 473.19 52.17 469.45 49.67 465.73 47.08 462.06 44.87 458.14 42.54 454.31 40.06 450.56 38.04 446.55 35.7 442.72 33.64 438.73 31.53 434.76 29.76 430.63 27.71 426.63 25.78 422.58 24.09 418.43 22.31 414.3 20.77 410.09 18.93 405.98 17.53 401.71 16.09 397.47 14.58 393.24 13.29 388.94 11.97 384.65 10.87 380.3 9.66 375.98 8.52 371.64 7.52 367.26 6.62 362.87 5.69 358.48 4.64 354.11 3.88 349.68 3.36 345.22 2.65 340.79 2.09 336.33 1.7 331.86 1.14 327.4 0.96 322.92 0.59 318.44 0.31 313.96 0.25 309.48 0.08 304.99 -0.08 300.5 0.07 296.01 -0.02 291.52 0.4 287.04 0.4 282.55 0.97 278.08 1.2 273.6 1.74 269.14 2.1 264.67 2.63 260.21 3.42 255.79 3.87 251.31 4.72 246.9 5.51 242.48 6.5 238.1 7.58 233.74 8.51 229.35 9.67 225.02 10.64 220.63 12.01 216.35 13.14 212 14.71 207.79 16.14 203.54 17.63 199.3 19 195.03 20.61 190.84 22.25 186.66 24 182.52 25.93 178.46 27.7 174.34 29.56 170.25 31.56 166.23 33.7 162.29 35.8 158.32 37.85 154.33 40.09 150.44 42.43 146.6 44.82 142.8 47.05 138.9 49.69 135.26 52.18 131.53 54.67 127.8 57.37 124.21 59.84 120.45 62.76 117.04 65.56 113.53 68.29 109.97 71.05 106.42 74.03 103.07 77.11 99.79 80.01 96.37 83.21 93.21 86.3 89.95 89.57 86.88 92.66 83.62 95.98 80.61 99.2 77.47 102.67 74.62 106 71.6 109.53 68.83 113.03 66.03 116.5 63.19 120.11 60.51 123.63 57.73 127.23 55.04 130.91 52.48 134.76 50.15 138.5 47.66 142.3 45.28 146.06 42.83 149.93 40.55 153.93 38.49 157.76 36.15 161.76 34.11 165.77 32.09 169.83 30.18 173.84 28.17 177.95 26.35 182.13 24.71 186.21 22.83 190.42 21.27 194.57 19.56 198.79 18.04 202.99 16.46 207.3 15.21 211.58 13.85 215.85 12.46 220.21 11.38 224.48 9.99 228.83 8.87 233.22 7.95 237.58 6.87 242 6.04 246.4 5.17 250.84 4.5 255.26 3.72 259.71 3.11 264.16 2.54 268.64 2.24 273.11 1.74 277.57 1.28 282.05 1.04 286.53 0.76 291.02 0.59 295.51 0.55 300 0.45 304.49 0.42 308.98 0.55 313.47 0.75 317.94 1.15 322.43 1.25 326.91 1.63 331.36 2.24 335.82 2.75 340.29 3.16 344.75 3.66 349.16 4.51 353.58 5.32 358.02 6.02 362.43 6.85 366.76 8.06 371.14 9.04 375.52 10.04 379.84 11.24 384.16 12.47 388.42 13.89 392.75 15.08 396.98 16.59 401.23 18.02 405.49 19.46 409.68 21.07 413.77 22.92 417.94 24.58 422.1 26.28 426.2 28.11 430.26 30.04 434.18 32.24 438.19 34.24 442.14 36.38 446.13 38.43 450 40.7 453.85 43.01 457.76 45.22 461.58 47.58 465.35 50.02 469.1 52.49 472.69 55.18 476.32 57.83 479.92 60.5 483.5 63.22 487.13 65.86 490.54 68.78 493.91 71.75 497.43 74.54 500.69 77.63 503.99 80.66 507.4 83.59 510.47 86.87 513.75 89.94 516.86 93.18 519.95 96.43 523.04 99.69 525.82 103.22 528.89 106.5 531.66 110.03 534.62 113.41 537.45 116.9 540.16 120.48 542.84 124.08 545.45 127.73 547.88 131.52 550.48 135.17 552.77 139.04 555.25 142.78 557.47 146.68 559.81 150.51 561.98 154.44 564.28 158.3 566.46 162.22 568.42 166.26 570.34 170.32 572.36 174.33 574.18 178.44 576.05 182.52 577.65 186.72 579.37 190.86 580.86 195.09 582.63 199.23 583.93 203.53 585.34 207.79 586.63 212.09 587.96 216.37 589.22 220.68 590.31 225.03 591.37 229.39 592.4 233.76 593.42 238.13 594.54 242.48 595.15 246.93 596.06 251.33 596.73 255.77 597.36 260.21 597.96 264.66 598.39 269.13 598.94 273.59 599.26 278.07 599.56 282.55 599.58 287.04 599.86 291.52 599.84 296.01 599.94 300.5"/></svg>