<svg xmlns="http://www.w3.org/2000/svg" viewBox="0 0 400.09 400.13"><defs><style>.cls-1{fill:#951f1f;}</style></defs><title>red-circle</title><g id="Layer_2" data-name="Layer 2"><g id="Layer_1-2" data-name="Layer 1"><polygon class="cls-1" points="399.97 200.08 400.08 204.57 399.84 209.05 399.59 213.54 399.31 218.02 398.86 222.49 398.24 226.93 397.45 231.35 396.73 235.78 396.04 240.22 395.15 244.62 394.02 248.96 392.94 253.32 391.66 257.63 390.16 261.86 388.75 266.11 387.3 270.37 385.75 274.57 384.09 278.75 382.13 282.79 380.34 286.91 378.28 290.9 376.13 294.84 373.93 298.75 371.86 302.74 369.51 306.57 366.98 310.28 364.48 314.01 361.91 317.69 359.26 321.32 356.37 324.75 353.66 328.34 350.59 331.62 347.64 335 344.66 338.36 341.55 341.6 338.33 344.73 334.95 347.69 331.62 350.69 328.14 353.54 324.8 356.55 321.11 359.11 317.64 361.96 313.86 364.39 310.14 366.89 306.43 369.41 302.58 371.73 298.73 374.02 294.75 376.1 290.8 378.23 286.81 380.29 282.81 382.32 278.63 383.96 274.54 385.83 270.36 387.46 266.1 388.88 261.86 390.36 257.59 391.74 253.28 393 248.95 394.19 244.52 394.97 240.14 395.94 235.74 396.79 231.32 397.59 226.88 398.23 222.44 398.92 217.96 399.17 213.5 399.7 209 399.74 204.52 400.05 200.03 400.13 195.54 400.04 191.06 399.79 186.58 399.6 182.11 399.2 177.64 398.76 173.16 398.44 168.72 397.79 164.29 396.99 159.91 396.04 155.5 395.15 151.18 393.94 146.8 392.96 142.5 391.68 138.23 390.29 133.96 388.9 129.71 387.44 125.56 385.73 121.44 383.97 117.27 382.29 113.22 380.35 109.19 378.36 105.29 376.13 101.3 374.08 97.48 371.71 93.65 369.39 89.89 366.93 86.05 364.6 82.49 361.86 78.87 359.21 75.27 356.53 71.93 353.52 68.43 350.71 65.09 347.7 61.88 344.57 58.6 341.51 55.56 338.21 52.31 335.1 49.39 331.68 46.5 328.25 43.57 324.85 40.94 321.2 38.27 317.6 35.62 313.98 32.99 310.33 30.63 306.52 28.38 302.63 25.93 298.86 23.96 294.82 21.73 290.92 19.69 286.92 17.82 282.84 15.97 278.75 14.25 274.6 12.63 270.41 11.28 266.13 9.69 261.93 8.53 257.59 7.33 253.26 6.16 248.93 5.14 244.57 4.07 240.21 3.35 235.78 2.39 231.39 1.72 226.95 1.21 222.49 0.83 218.01 0.4 213.54 0.38 209.05 0.06 204.57 0 200.08 0.04 195.59 0.14 191.1 0.4 186.62 0.93 182.15 1.18 177.67 1.95 173.24 2.54 168.79 3.32 164.38 4.1 159.96 5.03 155.57 5.94 151.17 7.11 146.83 8.44 142.54 9.64 138.21 11.23 134.01 12.87 129.83 14.29 125.57 16.13 121.47 17.92 117.36 19.84 113.3 21.67 109.2 23.9 105.29 26.11 101.39 28.37 97.51 30.79 93.73 33.16 89.92 35.59 86.14 38.33 82.59 40.9 78.91 43.73 75.43 46.58 71.96 49.36 68.43 52.51 65.23 55.58 61.96 58.55 58.58 61.92 55.61 65.05 52.39 68.43 49.43 71.8 46.46 75.42 43.8 78.87 40.93 82.42 38.19 86.14 35.67 89.83 33.12 93.68 30.8 97.38 28.25 101.33 26.12 105.28 23.98 109.21 21.82 113.25 19.87 117.31 17.95 121.46 16.25 125.59 14.48 129.75 12.81 133.98 11.31 138.25 9.93 142.52 8.56 146.78 7.11 151.12 5.97 155.53 5.1 159.9 4.08 164.31 3.23 168.75 2.6 173.17 1.82 177.65 1.45 182.1 0.94 186.58 0.54 191.06 0.4 195.54 0.18 200.03 0 204.52 0.17 209.02 0.13 213.49 0.62 217.98 0.74 222.42 1.46 226.89 1.87 231.31 2.63 235.76 3.25 240.17 4.06 244.53 5.15 248.95 5.96 253.27 7.18 257.6 8.39 261.86 9.82 266.07 11.37 270.32 12.81 274.48 14.49 278.7 16.03 282.75 17.98 286.88 19.73 290.81 21.93 294.77 24.02 298.69 26.21 302.66 28.31 306.49 30.66 310.28 33.07 313.99 35.59 317.57 38.31 321.22 40.92 324.8 43.63 328.27 46.48 331.6 49.49 334.95 52.48 338.31 55.46 341.51 58.61 344.6 61.87 347.61 65.19 350.75 68.41 353.49 71.97 356.34 75.44 359.17 78.92 361.76 82.58 364.57 86.1 366.88 89.96 369.28 93.74 371.74 97.5 374.13 101.3 376.24 105.26 378.22 109.29 380.37 113.24 382.13 117.37 383.99 121.46 385.57 125.66 387.37 129.77 388.82 134.02 390.39 138.23 391.56 142.56 392.92 146.84 393.92 151.22 394.94 155.59 395.97 159.95 396.76 164.37 397.65 168.77 398.39 173.2 398.94 177.66 399.17 182.15 399.57 186.62 399.81 191.1 400.09 195.59 399.97 200.08"/></g></g></svg>